<svg width="20" height="20" viewBox="0 0 20 20" fill="none" xmlns="http://www.w3.org/2000/svg">
<rect width="20" height="20" fill="#D9D9D9"/>
<path d="M9.9221 3.94176C10.3695 3.94531 10.817 4.03054 11.2644 4.19744C11.7119 4.36435 12.1203 4.64134 12.4896 5.02841C12.8589 5.41193 13.1554 5.93572 13.3791 6.59979C13.6029 7.26385 13.7147 8.09659 13.7147 9.09801C13.7147 10.0675 13.6224 10.9286 13.4377 11.6815C13.2566 12.4308 12.9938 13.0629 12.6494 13.5778C12.3085 14.0927 11.893 14.4833 11.4029 14.7496C10.9164 15.016 10.366 15.1491 9.75164 15.1491C9.14085 15.1491 8.59575 15.0284 8.11634 14.7869C7.64049 14.5419 7.24987 14.2028 6.94447 13.7695C6.64262 13.3327 6.44909 12.8267 6.36386 12.2514H7.66357C7.78076 12.7521 8.01336 13.1658 8.36137 13.4925C8.71294 13.8157 9.17636 13.9773 9.75164 13.9773C10.5933 13.9773 11.2573 13.6097 11.7438 12.8746C12.2339 12.1396 12.4789 11.1009 12.4789 9.75852H12.3937C12.1948 10.0568 11.9587 10.3143 11.6852 10.5309C11.4118 10.7475 11.1082 10.9144 10.7744 11.0316C10.4406 11.1488 10.0854 11.2074 9.70903 11.2074C9.08403 11.2074 8.51052 11.0529 7.9885 10.744C7.47004 10.4315 7.05455 10.0036 6.74205 9.46023C6.43311 8.91335 6.27863 8.28835 6.27863 7.58523C6.27863 6.91761 6.42778 6.30682 6.72607 5.75284C7.02792 5.19531 7.45051 4.75142 7.99383 4.42116C8.5407 4.09091 9.18346 3.93111 9.9221 3.94176ZM9.9221 5.11364C9.47465 5.11364 9.0716 5.2255 8.71294 5.44922C8.35782 5.66939 8.07551 5.96768 7.86599 6.3441C7.66002 6.71697 7.55704 7.13068 7.55704 7.58523C7.55704 8.03977 7.65647 8.45348 7.85534 8.82635C8.05775 9.19567 8.33296 9.49041 8.68097 9.71058C9.03254 9.9272 9.43204 10.0355 9.87948 10.0355C10.2168 10.0355 10.5311 9.96982 10.8223 9.83842C11.1135 9.70348 11.3674 9.5206 11.584 9.28977C11.8042 9.0554 11.9764 8.79084 12.1007 8.49609C12.225 8.1978 12.2872 7.88707 12.2872 7.56392C12.2872 7.13778 12.1842 6.73828 11.9782 6.36541C11.7758 5.99254 11.4953 5.6907 11.1366 5.45987C10.7815 5.22905 10.3766 5.11364 9.9221 5.11364Z" fill="black"/>
</svg>
